<svg xmlns="http://www.w3.org/2000/svg" version="1.1" xmlns:xlink="http://www.w3.org/1999/xlink" xmlns:svgjs="http://svgjs.dev/svgjs" width="1440" height="560" preserveAspectRatio="none" viewBox="0 0 1440 560"><g mask="url(&quot;#SvgjsMask1004&quot;)" fill="none"><path d="M239.92 62.45L304.88 99.95L304.88 174.95L239.92 212.45L174.97 174.95L174.97 99.95zM369.83 62.45L434.78 99.95L434.78 174.95L369.83 212.45L304.88 174.95L304.88 99.95zM304.88 174.95L369.83 212.45L369.83 287.45L304.88 324.95L239.92 287.45L239.92 212.45zM369.83 287.45L434.78 324.95L434.78 399.95L369.83 437.45L304.88 399.95L304.88 324.95zM369.83 512.45L434.78 549.95L434.78 624.95L369.83 662.45L304.88 624.95L304.88 549.95zM434.78 -50.05L499.74 -12.55L499.74 62.45L434.78 99.95L369.83 62.45L369.83 -12.55zM499.74 62.45L564.69 99.95L564.69 174.95L499.74 212.45L434.78 174.95L434.78 99.95zM499.74 287.45L564.69 324.95L564.69 399.95L499.74 437.45L434.78 399.95L434.78 324.95zM499.74 512.45L564.69 549.95L564.69 624.95L499.74 662.45L434.78 624.95L434.78 549.95zM629.64 62.45L694.6 99.95L694.6 174.95L629.64 212.45L564.69 174.95L564.69 99.95zM759.55 512.45L824.51 549.95L824.51 624.95L759.55 662.45L694.6 624.95L694.6 549.95zM824.5 -50.05L889.46 -12.55L889.46 62.45L824.5 99.95L759.55 62.45L759.55 -12.55zM889.46 62.45L954.41 99.95L954.41 174.95L889.46 212.45L824.5 174.95L824.5 99.95zM889.46 287.45L954.41 324.95L954.41 399.95L889.46 437.45L824.5 399.95L824.5 324.95zM824.5 399.95L889.46 437.45L889.46 512.45L824.5 549.95L759.55 512.45L759.55 437.45zM954.41 -50.05L1019.37 -12.55L1019.37 62.45L954.41 99.95L889.46 62.45L889.46 -12.55zM1084.32 -50.05L1149.27 -12.55L1149.27 62.45L1084.32 99.95L1019.37 62.45L1019.37 -12.55zM1149.27 512.45L1214.23 549.95L1214.23 624.95L1149.27 662.45L1084.32 624.95L1084.32 549.95zM1214.23 -50.05L1279.18 -12.55L1279.18 62.45L1214.23 99.95L1149.27 62.45L1149.27 -12.55zM1279.18 62.45L1344.13 99.95L1344.13 174.95L1279.18 212.45L1214.23 174.95L1214.23 99.95zM1214.23 174.95L1279.18 212.45L1279.18 287.45L1214.23 324.95L1149.27 287.45L1149.27 212.45zM1214.23 399.95L1279.18 437.45L1279.18 512.45L1214.23 549.95L1149.27 512.45L1149.27 437.45zM1409.09 62.45L1474.04 99.95L1474.04 174.95L1409.09 212.45L1344.13 174.95L1344.13 99.95zM1344.13 174.95L1409.09 212.45L1409.09 287.45L1344.13 324.95L1279.18 287.45L1279.18 212.45zM1409.09 287.45L1474.04 324.95L1474.04 399.95L1409.09 437.45L1344.13 399.95L1344.13 324.95zM1409.09 512.45L1474.04 549.95L1474.04 624.95L1409.09 662.45L1344.13 624.95L1344.13 549.95zM1539 287.45L1603.95 324.95L1603.95 399.95L1539 437.45L1474.04 399.95L1474.04 324.95zM1474.04 399.95L1539 437.45L1539 512.45L1474.04 549.95L1409.09 512.45L1409.09 437.45z" stroke="rgba(248, 250, 252, 1)" stroke-width="2"></path><path d="M232.42 62.45 a7.5 7.5 0 1 0 15 0 a7.5 7.5 0 1 0 -15 0zM297.38 99.95 a7.5 7.5 0 1 0 15 0 a7.5 7.5 0 1 0 -15 0zM297.38 174.95 a7.5 7.5 0 1 0 15 0 a7.5 7.5 0 1 0 -15 0zM232.42 212.45 a7.5 7.5 0 1 0 15 0 a7.5 7.5 0 1 0 -15 0zM167.47 174.95 a7.5 7.5 0 1 0 15 0 a7.5 7.5 0 1 0 -15 0zM167.47 99.95 a7.5 7.5 0 1 0 15 0 a7.5 7.5 0 1 0 -15 0zM362.33 62.45 a7.5 7.5 0 1 0 15 0 a7.5 7.5 0 1 0 -15 0zM427.28 99.95 a7.5 7.5 0 1 0 15 0 a7.5 7.5 0 1 0 -15 0zM427.28 174.95 a7.5 7.5 0 1 0 15 0 a7.5 7.5 0 1 0 -15 0zM362.33 212.45 a7.5 7.5 0 1 0 15 0 a7.5 7.5 0 1 0 -15 0zM362.33 287.45 a7.5 7.5 0 1 0 15 0 a7.5 7.5 0 1 0 -15 0zM297.38 324.95 a7.5 7.5 0 1 0 15 0 a7.5 7.5 0 1 0 -15 0zM232.42 287.45 a7.5 7.5 0 1 0 15 0 a7.5 7.5 0 1 0 -15 0zM427.28 324.95 a7.5 7.5 0 1 0 15 0 a7.5 7.5 0 1 0 -15 0zM427.28 399.95 a7.5 7.5 0 1 0 15 0 a7.5 7.5 0 1 0 -15 0zM362.33 437.45 a7.5 7.5 0 1 0 15 0 a7.5 7.5 0 1 0 -15 0zM297.38 399.95 a7.5 7.5 0 1 0 15 0 a7.5 7.5 0 1 0 -15 0zM362.33 512.45 a7.5 7.5 0 1 0 15 0 a7.5 7.5 0 1 0 -15 0zM427.28 549.95 a7.5 7.5 0 1 0 15 0 a7.5 7.5 0 1 0 -15 0zM427.28 624.95 a7.5 7.5 0 1 0 15 0 a7.5 7.5 0 1 0 -15 0zM362.33 662.45 a7.5 7.5 0 1 0 15 0 a7.5 7.5 0 1 0 -15 0zM297.38 624.95 a7.5 7.5 0 1 0 15 0 a7.5 7.5 0 1 0 -15 0zM297.38 549.95 a7.5 7.5 0 1 0 15 0 a7.5 7.5 0 1 0 -15 0zM427.28 -50.05 a7.5 7.5 0 1 0 15 0 a7.5 7.5 0 1 0 -15 0zM492.24 -12.55 a7.5 7.5 0 1 0 15 0 a7.5 7.5 0 1 0 -15 0zM492.24 62.45 a7.5 7.5 0 1 0 15 0 a7.5 7.5 0 1 0 -15 0zM362.33 -12.55 a7.5 7.5 0 1 0 15 0 a7.5 7.5 0 1 0 -15 0zM557.19 99.95 a7.5 7.5 0 1 0 15 0 a7.5 7.5 0 1 0 -15 0zM557.19 174.95 a7.5 7.5 0 1 0 15 0 a7.5 7.5 0 1 0 -15 0zM492.24 212.45 a7.5 7.5 0 1 0 15 0 a7.5 7.5 0 1 0 -15 0zM492.24 287.45 a7.5 7.5 0 1 0 15 0 a7.5 7.5 0 1 0 -15 0zM557.19 324.95 a7.5 7.5 0 1 0 15 0 a7.5 7.5 0 1 0 -15 0zM557.19 399.95 a7.5 7.5 0 1 0 15 0 a7.5 7.5 0 1 0 -15 0zM492.24 437.45 a7.5 7.5 0 1 0 15 0 a7.5 7.5 0 1 0 -15 0zM492.24 512.45 a7.5 7.5 0 1 0 15 0 a7.5 7.5 0 1 0 -15 0zM557.19 549.95 a7.5 7.5 0 1 0 15 0 a7.5 7.5 0 1 0 -15 0zM557.19 624.95 a7.5 7.5 0 1 0 15 0 a7.5 7.5 0 1 0 -15 0zM492.24 662.45 a7.5 7.5 0 1 0 15 0 a7.5 7.5 0 1 0 -15 0zM622.14 62.45 a7.5 7.5 0 1 0 15 0 a7.5 7.5 0 1 0 -15 0zM687.1 99.95 a7.5 7.5 0 1 0 15 0 a7.5 7.5 0 1 0 -15 0zM687.1 174.95 a7.5 7.5 0 1 0 15 0 a7.5 7.5 0 1 0 -15 0zM622.14 212.45 a7.5 7.5 0 1 0 15 0 a7.5 7.5 0 1 0 -15 0zM752.05 512.45 a7.5 7.5 0 1 0 15 0 a7.5 7.5 0 1 0 -15 0zM817.01 549.95 a7.5 7.5 0 1 0 15 0 a7.5 7.5 0 1 0 -15 0zM817.01 624.95 a7.5 7.5 0 1 0 15 0 a7.5 7.5 0 1 0 -15 0zM752.05 662.45 a7.5 7.5 0 1 0 15 0 a7.5 7.5 0 1 0 -15 0zM687.1 624.95 a7.5 7.5 0 1 0 15 0 a7.5 7.5 0 1 0 -15 0zM687.1 549.95 a7.5 7.5 0 1 0 15 0 a7.5 7.5 0 1 0 -15 0zM817 -50.05 a7.5 7.5 0 1 0 15 0 a7.5 7.5 0 1 0 -15 0zM881.96 -12.55 a7.5 7.5 0 1 0 15 0 a7.5 7.5 0 1 0 -15 0zM881.96 62.45 a7.5 7.5 0 1 0 15 0 a7.5 7.5 0 1 0 -15 0zM817 99.95 a7.5 7.5 0 1 0 15 0 a7.5 7.5 0 1 0 -15 0zM752.05 62.45 a7.5 7.5 0 1 0 15 0 a7.5 7.5 0 1 0 -15 0zM752.05 -12.55 a7.5 7.5 0 1 0 15 0 a7.5 7.5 0 1 0 -15 0zM946.91 99.95 a7.5 7.5 0 1 0 15 0 a7.5 7.5 0 1 0 -15 0zM946.91 174.95 a7.5 7.5 0 1 0 15 0 a7.5 7.5 0 1 0 -15 0zM881.96 212.45 a7.5 7.5 0 1 0 15 0 a7.5 7.5 0 1 0 -15 0zM817 174.95 a7.5 7.5 0 1 0 15 0 a7.5 7.5 0 1 0 -15 0zM881.96 287.45 a7.5 7.5 0 1 0 15 0 a7.5 7.5 0 1 0 -15 0zM946.91 324.95 a7.5 7.5 0 1 0 15 0 a7.5 7.5 0 1 0 -15 0zM946.91 399.95 a7.5 7.5 0 1 0 15 0 a7.5 7.5 0 1 0 -15 0zM881.96 437.45 a7.5 7.5 0 1 0 15 0 a7.5 7.5 0 1 0 -15 0zM817 399.95 a7.5 7.5 0 1 0 15 0 a7.5 7.5 0 1 0 -15 0zM817 324.95 a7.5 7.5 0 1 0 15 0 a7.5 7.5 0 1 0 -15 0zM881.96 512.45 a7.5 7.5 0 1 0 15 0 a7.5 7.5 0 1 0 -15 0zM817 549.95 a7.5 7.5 0 1 0 15 0 a7.5 7.5 0 1 0 -15 0zM752.05 437.45 a7.5 7.5 0 1 0 15 0 a7.5 7.5 0 1 0 -15 0zM946.91 -50.05 a7.5 7.5 0 1 0 15 0 a7.5 7.5 0 1 0 -15 0zM1011.87 -12.55 a7.5 7.5 0 1 0 15 0 a7.5 7.5 0 1 0 -15 0zM1011.87 62.45 a7.5 7.5 0 1 0 15 0 a7.5 7.5 0 1 0 -15 0zM1076.82 -50.05 a7.5 7.5 0 1 0 15 0 a7.5 7.5 0 1 0 -15 0zM1141.77 -12.55 a7.5 7.5 0 1 0 15 0 a7.5 7.5 0 1 0 -15 0zM1141.77 62.45 a7.5 7.5 0 1 0 15 0 a7.5 7.5 0 1 0 -15 0zM1076.82 99.95 a7.5 7.5 0 1 0 15 0 a7.5 7.5 0 1 0 -15 0zM1141.77 512.45 a7.5 7.5 0 1 0 15 0 a7.5 7.5 0 1 0 -15 0zM1206.73 549.95 a7.5 7.5 0 1 0 15 0 a7.5 7.5 0 1 0 -15 0zM1206.73 624.95 a7.5 7.5 0 1 0 15 0 a7.5 7.5 0 1 0 -15 0zM1141.77 662.45 a7.5 7.5 0 1 0 15 0 a7.5 7.5 0 1 0 -15 0zM1076.82 624.95 a7.5 7.5 0 1 0 15 0 a7.5 7.5 0 1 0 -15 0zM1076.82 549.95 a7.5 7.5 0 1 0 15 0 a7.5 7.5 0 1 0 -15 0zM1206.73 -50.05 a7.5 7.5 0 1 0 15 0 a7.5 7.5 0 1 0 -15 0zM1271.68 -12.55 a7.5 7.5 0 1 0 15 0 a7.5 7.5 0 1 0 -15 0zM1271.68 62.45 a7.5 7.5 0 1 0 15 0 a7.5 7.5 0 1 0 -15 0zM1206.73 99.95 a7.5 7.5 0 1 0 15 0 a7.5 7.5 0 1 0 -15 0zM1336.63 99.95 a7.5 7.5 0 1 0 15 0 a7.5 7.5 0 1 0 -15 0zM1336.63 174.95 a7.5 7.5 0 1 0 15 0 a7.5 7.5 0 1 0 -15 0zM1271.68 212.45 a7.5 7.5 0 1 0 15 0 a7.5 7.5 0 1 0 -15 0zM1206.73 174.95 a7.5 7.5 0 1 0 15 0 a7.5 7.5 0 1 0 -15 0zM1271.68 287.45 a7.5 7.5 0 1 0 15 0 a7.5 7.5 0 1 0 -15 0zM1206.73 324.95 a7.5 7.5 0 1 0 15 0 a7.5 7.5 0 1 0 -15 0zM1141.77 287.45 a7.5 7.5 0 1 0 15 0 a7.5 7.5 0 1 0 -15 0zM1141.77 212.45 a7.5 7.5 0 1 0 15 0 a7.5 7.5 0 1 0 -15 0zM1206.73 399.95 a7.5 7.5 0 1 0 15 0 a7.5 7.5 0 1 0 -15 0zM1271.68 437.45 a7.5 7.5 0 1 0 15 0 a7.5 7.5 0 1 0 -15 0zM1271.68 512.45 a7.5 7.5 0 1 0 15 0 a7.5 7.5 0 1 0 -15 0zM1141.77 437.45 a7.5 7.5 0 1 0 15 0 a7.5 7.5 0 1 0 -15 0zM1401.59 62.45 a7.5 7.5 0 1 0 15 0 a7.5 7.5 0 1 0 -15 0zM1466.54 99.95 a7.5 7.5 0 1 0 15 0 a7.5 7.5 0 1 0 -15 0zM1466.54 174.95 a7.5 7.5 0 1 0 15 0 a7.5 7.5 0 1 0 -15 0zM1401.59 212.45 a7.5 7.5 0 1 0 15 0 a7.5 7.5 0 1 0 -15 0zM1401.59 287.45 a7.5 7.5 0 1 0 15 0 a7.5 7.5 0 1 0 -15 0zM1336.63 324.95 a7.5 7.5 0 1 0 15 0 a7.5 7.5 0 1 0 -15 0zM1466.54 324.95 a7.5 7.5 0 1 0 15 0 a7.5 7.5 0 1 0 -15 0zM1466.54 399.95 a7.5 7.5 0 1 0 15 0 a7.5 7.5 0 1 0 -15 0zM1401.59 437.45 a7.5 7.5 0 1 0 15 0 a7.5 7.5 0 1 0 -15 0zM1336.63 399.95 a7.5 7.5 0 1 0 15 0 a7.5 7.5 0 1 0 -15 0zM1401.59 512.45 a7.5 7.5 0 1 0 15 0 a7.5 7.5 0 1 0 -15 0zM1466.54 549.95 a7.5 7.5 0 1 0 15 0 a7.5 7.5 0 1 0 -15 0zM1466.54 624.95 a7.5 7.5 0 1 0 15 0 a7.5 7.5 0 1 0 -15 0zM1401.59 662.45 a7.5 7.5 0 1 0 15 0 a7.5 7.5 0 1 0 -15 0zM1336.63 624.95 a7.5 7.5 0 1 0 15 0 a7.5 7.5 0 1 0 -15 0zM1336.63 549.95 a7.5 7.5 0 1 0 15 0 a7.5 7.5 0 1 0 -15 0zM1531.5 287.45 a7.5 7.5 0 1 0 15 0 a7.5 7.5 0 1 0 -15 0zM1596.45 324.95 a7.5 7.5 0 1 0 15 0 a7.5 7.5 0 1 0 -15 0zM1596.45 399.95 a7.5 7.5 0 1 0 15 0 a7.5 7.5 0 1 0 -15 0zM1531.5 437.45 a7.5 7.5 0 1 0 15 0 a7.5 7.5 0 1 0 -15 0zM1531.5 512.45 a7.5 7.5 0 1 0 15 0 a7.5 7.5 0 1 0 -15 0z" fill="rgba(248, 250, 252, 1)"></path><path d="M65.24 51.49L108.55 76.49L108.55 126.49L65.24 151.49L21.94 126.49L21.94 76.49zM21.94 126.49L65.24 151.49L65.24 201.49L21.94 226.49L-21.36 201.49L-21.36 151.49zM151.85 51.49L195.15 76.49L195.15 126.49L151.85 151.49L108.55 126.49L108.55 76.49zM151.85 351.49L195.15 376.49L195.15 426.49L151.85 451.49L108.55 426.49L108.55 376.49zM151.85 501.49L195.15 526.49L195.15 576.49L151.85 601.49L108.55 576.49L108.55 526.49zM238.45 51.49L281.75 76.49L281.75 126.49L238.45 151.49L195.15 126.49L195.15 76.49zM238.45 201.49L281.75 226.49L281.75 276.49L238.45 301.49L195.15 276.49L195.15 226.49zM238.45 351.49L281.75 376.49L281.75 426.49L238.45 451.49L195.15 426.49L195.15 376.49zM281.75 -23.51L325.06 1.49L325.06 51.49L281.75 76.49L238.45 51.49L238.45 1.49zM325.06 51.49L368.36 76.49L368.36 126.49L325.06 151.49L281.75 126.49L281.75 76.49zM281.75 276.49L325.06 301.49L325.06 351.49L281.75 376.49L238.45 351.49L238.45 301.49zM325.06 351.49L368.36 376.49L368.36 426.49L325.06 451.49L281.75 426.49L281.75 376.49zM368.36 426.49L411.66 451.49L411.66 501.49L368.36 526.49L325.06 501.49L325.06 451.49zM411.66 501.49L454.97 526.49L454.97 576.49L411.66 601.49L368.36 576.49L368.36 526.49zM454.97 -23.51L498.27 1.49L498.27 51.49L454.97 76.49L411.66 51.49L411.66 1.49zM454.97 126.49L498.27 151.49L498.27 201.49L454.97 226.49L411.66 201.49L411.66 151.49zM541.57 126.49L584.87 151.49L584.87 201.49L541.57 226.49L498.27 201.49L498.27 151.49zM584.87 201.49L628.18 226.49L628.18 276.49L584.87 301.49L541.57 276.49L541.57 226.49zM541.57 276.49L584.87 301.49L584.87 351.49L541.57 376.49L498.27 351.49L498.27 301.49zM541.57 426.49L584.87 451.49L584.87 501.49L541.57 526.49L498.27 501.49L498.27 451.49zM628.18 -23.51L671.48 1.49L671.48 51.49L628.18 76.49L584.87 51.49L584.87 1.49zM671.48 201.49L714.78 226.49L714.78 276.49L671.48 301.49L628.18 276.49L628.18 226.49zM671.48 501.49L714.78 526.49L714.78 576.49L671.48 601.49L628.18 576.49L628.18 526.49zM758.08 51.49L801.39 76.49L801.39 126.49L758.08 151.49L714.78 126.49L714.78 76.49zM758.08 201.49L801.39 226.49L801.39 276.49L758.08 301.49L714.78 276.49L714.78 226.49zM714.78 276.49L758.08 301.49L758.08 351.49L714.78 376.49L671.48 351.49L671.48 301.49zM758.08 351.49L801.39 376.49L801.39 426.49L758.08 451.49L714.78 426.49L714.78 376.49zM758.08 501.49L801.39 526.49L801.39 576.49L758.08 601.49L714.78 576.49L714.78 526.49zM801.39 -23.51L844.69 1.49L844.69 51.49L801.39 76.49L758.08 51.49L758.08 1.49zM844.69 51.49L887.99 76.49L887.99 126.49L844.69 151.49L801.39 126.49L801.39 76.49zM801.39 276.49L844.69 301.49L844.69 351.49L801.39 376.49L758.08 351.49L758.08 301.49zM844.69 501.49L887.99 526.49L887.99 576.49L844.69 601.49L801.39 576.49L801.39 526.49zM887.99 -23.51L931.29 1.49L931.29 51.49L887.99 76.49L844.69 51.49L844.69 1.49zM931.29 201.49L974.6 226.49L974.6 276.49L931.29 301.49L887.99 276.49L887.99 226.49zM931.29 501.49L974.6 526.49L974.6 576.49L931.29 601.49L887.99 576.49L887.99 526.49zM1017.9 201.49L1061.2 226.49L1061.2 276.49L1017.9 301.49L974.6 276.49L974.6 226.49zM974.6 426.49L1017.9 451.49L1017.9 501.49L974.6 526.49L931.29 501.49L931.29 451.49zM1061.2 -23.51L1104.5 1.49L1104.5 51.49L1061.2 76.49L1017.9 51.49L1017.9 1.49zM1061.2 126.49L1104.5 151.49L1104.5 201.49L1061.2 226.49L1017.9 201.49L1017.9 151.49zM1104.5 201.49L1147.81 226.49L1147.81 276.49L1104.5 301.49L1061.2 276.49L1061.2 226.49zM1061.2 276.49L1104.5 301.49L1104.5 351.49L1061.2 376.49L1017.9 351.49L1017.9 301.49zM1061.2 426.49L1104.5 451.49L1104.5 501.49L1061.2 526.49L1017.9 501.49L1017.9 451.49zM1104.5 501.49L1147.81 526.49L1147.81 576.49L1104.5 601.49L1061.2 576.49L1061.2 526.49zM1147.81 -23.51L1191.11 1.49L1191.11 51.49L1147.81 76.49L1104.5 51.49L1104.5 1.49zM1191.11 501.49L1234.41 526.49L1234.41 576.49L1191.11 601.49L1147.81 576.49L1147.81 526.49zM1277.71 51.49L1321.02 76.49L1321.02 126.49L1277.71 151.49L1234.41 126.49L1234.41 76.49zM1277.71 351.49L1321.02 376.49L1321.02 426.49L1277.71 451.49L1234.41 426.49L1234.41 376.49zM1277.71 501.49L1321.02 526.49L1321.02 576.49L1277.71 601.49L1234.41 576.49L1234.41 526.49zM1364.32 201.49L1407.62 226.49L1407.62 276.49L1364.32 301.49L1321.02 276.49L1321.02 226.49zM1321.02 276.49L1364.32 301.49L1364.32 351.49L1321.02 376.49L1277.71 351.49L1277.71 301.49zM1364.32 351.49L1407.62 376.49L1407.62 426.49L1364.32 451.49L1321.02 426.49L1321.02 376.49zM1321.02 426.49L1364.32 451.49L1364.32 501.49L1321.02 526.49L1277.71 501.49L1277.71 451.49zM1407.62 -23.51L1450.92 1.49L1450.92 51.49L1407.62 76.49L1364.32 51.49L1364.32 1.49zM1407.62 276.49L1450.92 301.49L1450.92 351.49L1407.62 376.49L1364.32 351.49L1364.32 301.49zM1450.92 351.49L1494.23 376.49L1494.23 426.49L1450.92 451.49L1407.62 426.49L1407.62 376.49zM1407.62 426.49L1450.92 451.49L1450.92 501.49L1407.62 526.49L1364.32 501.49L1364.32 451.49z" stroke="rgba(241, 245, 249, 1)" stroke-width="2"></path></g><defs><mask id="SvgjsMask1004"><rect width="1440" height="560" fill="#ffffff"></rect></mask></defs></svg>