<svg xmlns="http://www.w3.org/2000/svg" version="1.1" xmlns:xlink="http://www.w3.org/1999/xlink" xmlns:svgjs="http://svgjs.dev/svgjs" width="1440" height="560" preserveAspectRatio="none" viewBox="0 0 1440 560"><g mask="url(&quot;#SvgjsMask1002&quot;)" fill="none"><rect width="1440" height="560" x="0" y="0" fill="rgba(15, 23, 42, 1)"></rect><path d="M612.68 584.32C726.53 567.88 671.93 313.88 973.99 299.44 1276.04 285 1505.31 51.02 1696.6 47.44" stroke="rgba(51, 65, 85, 1)" stroke-width="2"></path><path d="M520.43 585.86C701.31 563.84 804.69 158.89 1109.25 156.26 1413.8 153.63 1547.95 273.29 1698.06 273.86" stroke="rgba(51, 65, 85, 1)" stroke-width="2"></path><path d="M333.77 663.51C468.63 641 531.11 314.49 751.67 310.69 972.23 306.89 960.62 380.69 1169.57 380.69 1378.52 380.69 1481.54 310.93 1587.47 310.69" stroke="rgba(51, 65, 85, 1)" stroke-width="2"></path><path d="M617.1 615.26C748.62 566.21 697.12 171.45 959.5 170.3 1221.89 169.15 1463.77 396.87 1644.31 399.9" stroke="rgba(51, 65, 85, 1)" stroke-width="2"></path><path d="M830.6 645.69C964.73 626.48 1038.83 311.93 1256.83 310.89 1474.83 309.85 1570.02 459.87 1683.06 462.09" stroke="rgba(51, 65, 85, 1)" stroke-width="2"></path></g><defs><mask id="SvgjsMask1002"><rect width="1440" height="560" fill="#ffffff"></rect></mask></defs></svg>