<svg xmlns="http://www.w3.org/2000/svg" version="1.1" xmlns:xlink="http://www.w3.org/1999/xlink" xmlns:svgjs="http://svgjs.dev/svgjs" width="1440" height="560" preserveAspectRatio="none" viewBox="0 0 1440 560"><g mask="url(&quot;#SvgjsMask1016&quot;)" fill="none"><rect width="1440" height="560" x="0" y="0" fill="rgba(15, 23, 42, 1)"></rect><use xlink:href="#SvgjsSymbol1023" x="0" y="0"></use><use xlink:href="#SvgjsSymbol1023" x="720" y="0"></use></g><defs><mask id="SvgjsMask1016"><rect width="1440" height="560" fill="#ffffff"></rect></mask><path d="M-1 0 a1 1 0 1 0 2 0 a1 1 0 1 0 -2 0z" id="SvgjsPath1022"></path><path d="M-3 0 a3 3 0 1 0 6 0 a3 3 0 1 0 -6 0z" id="SvgjsPath1020"></path><path d="M-5 0 a5 5 0 1 0 10 0 a5 5 0 1 0 -10 0z" id="SvgjsPath1017"></path><path d="M2 -2 L-2 2z" id="SvgjsPath1019"></path><path d="M6 -6 L-6 6z" id="SvgjsPath1018"></path><path d="M30 -30 L-30 30z" id="SvgjsPath1021"></path></defs><symbol id="SvgjsSymbol1023"><use xlink:href="#SvgjsPath1017" x="30" y="30" stroke="rgba(30, 41, 59, 1)"></use><use xlink:href="#SvgjsPath1018" x="30" y="90" stroke="rgba(30, 41, 59, 1)"></use><use xlink:href="#SvgjsPath1017" x="30" y="150" stroke="rgba(30, 41, 59, 1)"></use><use xlink:href="#SvgjsPath1017" x="30" y="210" stroke="rgba(30, 41, 59, 1)"></use><use xlink:href="#SvgjsPath1017" x="30" y="270" stroke="rgba(30, 41, 59, 1)"></use><use xlink:href="#SvgjsPath1019" x="30" y="330" stroke="rgba(30, 41, 59, 1)"></use><use xlink:href="#SvgjsPath1020" x="30" y="390" stroke="rgba(30, 41, 59, 1)"></use><use xlink:href="#SvgjsPath1020" x="30" y="450" stroke="rgba(30, 41, 59, 1)"></use><use xlink:href="#SvgjsPath1018" x="30" y="510" stroke="rgba(30, 41, 59, 1)"></use><use xlink:href="#SvgjsPath1017" x="30" y="570" stroke="rgba(30, 41, 59, 1)"></use><use xlink:href="#SvgjsPath1018" x="90" y="30" stroke="rgba(30, 41, 59, 1)"></use><use xlink:href="#SvgjsPath1018" x="90" y="90" stroke="rgba(30, 41, 59, 1)"></use><use xlink:href="#SvgjsPath1019" x="90" y="150" stroke="rgba(30, 41, 59, 1)"></use><use xlink:href="#SvgjsPath1017" x="90" y="210" stroke="rgba(30, 41, 59, 1)"></use><use xlink:href="#SvgjsPath1018" x="90" y="270" stroke="rgba(30, 41, 59, 1)"></use><use xlink:href="#SvgjsPath1021" x="90" y="330" stroke="rgba(30, 41, 59, 1)" stroke-width="3"></use><use xlink:href="#SvgjsPath1017" x="90" y="390" stroke="rgba(30, 41, 59, 1)"></use><use xlink:href="#SvgjsPath1022" x="90" y="450" stroke="rgba(30, 41, 59, 1)"></use><use xlink:href="#SvgjsPath1019" x="90" y="510" stroke="rgba(30, 41, 59, 1)"></use><use xlink:href="#SvgjsPath1017" x="90" y="570" stroke="rgba(30, 41, 59, 1)"></use><use xlink:href="#SvgjsPath1017" x="150" y="30" stroke="rgba(30, 41, 59, 1)"></use><use xlink:href="#SvgjsPath1018" x="150" y="90" stroke="rgba(30, 41, 59, 1)"></use><use xlink:href="#SvgjsPath1018" x="150" y="150" stroke="rgba(30, 41, 59, 1)"></use><use xlink:href="#SvgjsPath1019" x="150" y="210" stroke="rgba(30, 41, 59, 1)"></use><use xlink:href="#SvgjsPath1018" x="150" y="270" stroke="rgba(30, 41, 59, 1)"></use><use xlink:href="#SvgjsPath1017" x="150" y="330" stroke="rgba(30, 41, 59, 1)"></use><use xlink:href="#SvgjsPath1019" x="150" y="390" stroke="rgba(30, 41, 59, 1)"></use><use xlink:href="#SvgjsPath1018" x="150" y="450" stroke="rgba(30, 41, 59, 1)"></use><use xlink:href="#SvgjsPath1019" x="150" y="510" stroke="rgba(30, 41, 59, 1)"></use><use xlink:href="#SvgjsPath1019" x="150" y="570" stroke="rgba(30, 41, 59, 1)"></use><use xlink:href="#SvgjsPath1018" x="210" y="30" stroke="rgba(30, 41, 59, 1)"></use><use xlink:href="#SvgjsPath1018" x="210" y="90" stroke="rgba(30, 41, 59, 1)"></use><use xlink:href="#SvgjsPath1017" x="210" y="150" stroke="rgba(30, 41, 59, 1)"></use><use xlink:href="#SvgjsPath1020" x="210" y="210" stroke="rgba(30, 41, 59, 1)"></use><use xlink:href="#SvgjsPath1017" x="210" y="270" stroke="rgba(30, 41, 59, 1)"></use><use xlink:href="#SvgjsPath1021" x="210" y="330" stroke="rgba(30, 41, 59, 1)" stroke-width="3"></use><use xlink:href="#SvgjsPath1022" x="210" y="390" stroke="rgba(30, 41, 59, 1)"></use><use xlink:href="#SvgjsPath1018" x="210" y="450" stroke="rgba(30, 41, 59, 1)"></use><use xlink:href="#SvgjsPath1017" x="210" y="510" stroke="rgba(30, 41, 59, 1)"></use><use xlink:href="#SvgjsPath1022" x="210" y="570" stroke="rgba(30, 41, 59, 1)"></use><use xlink:href="#SvgjsPath1018" x="270" y="30" stroke="rgba(30, 41, 59, 1)"></use><use xlink:href="#SvgjsPath1017" x="270" y="90" stroke="rgba(30, 41, 59, 1)"></use><use xlink:href="#SvgjsPath1019" x="270" y="150" stroke="rgba(30, 41, 59, 1)"></use><use xlink:href="#SvgjsPath1017" x="270" y="210" stroke="rgba(30, 41, 59, 1)"></use><use xlink:href="#SvgjsPath1018" x="270" y="270" stroke="rgba(30, 41, 59, 1)"></use><use xlink:href="#SvgjsPath1022" x="270" y="330" stroke="rgba(30, 41, 59, 1)"></use><use xlink:href="#SvgjsPath1018" x="270" y="390" stroke="rgba(30, 41, 59, 1)"></use><use xlink:href="#SvgjsPath1022" x="270" y="450" stroke="rgba(30, 41, 59, 1)"></use><use xlink:href="#SvgjsPath1018" x="270" y="510" stroke="rgba(30, 41, 59, 1)"></use><use xlink:href="#SvgjsPath1018" x="270" y="570" stroke="rgba(30, 41, 59, 1)"></use><use xlink:href="#SvgjsPath1018" x="330" y="30" stroke="rgba(30, 41, 59, 1)"></use><use xlink:href="#SvgjsPath1022" x="330" y="90" stroke="rgba(30, 41, 59, 1)"></use><use xlink:href="#SvgjsPath1020" x="330" y="150" stroke="rgba(30, 41, 59, 1)"></use><use xlink:href="#SvgjsPath1017" x="330" y="210" stroke="rgba(30, 41, 59, 1)"></use><use xlink:href="#SvgjsPath1021" x="330" y="270" stroke="rgba(30, 41, 59, 1)" stroke-width="3"></use><use xlink:href="#SvgjsPath1018" x="330" y="330" stroke="rgba(30, 41, 59, 1)"></use><use xlink:href="#SvgjsPath1018" x="330" y="390" stroke="rgba(30, 41, 59, 1)"></use><use xlink:href="#SvgjsPath1021" x="330" y="450" stroke="rgba(30, 41, 59, 1)" stroke-width="3"></use><use xlink:href="#SvgjsPath1019" x="330" y="510" stroke="rgba(30, 41, 59, 1)"></use><use xlink:href="#SvgjsPath1020" x="330" y="570" stroke="rgba(30, 41, 59, 1)"></use><use xlink:href="#SvgjsPath1017" x="390" y="30" stroke="rgba(30, 41, 59, 1)"></use><use xlink:href="#SvgjsPath1018" x="390" y="90" stroke="rgba(30, 41, 59, 1)"></use><use xlink:href="#SvgjsPath1022" x="390" y="150" stroke="rgba(30, 41, 59, 1)"></use><use xlink:href="#SvgjsPath1020" x="390" y="210" stroke="rgba(30, 41, 59, 1)"></use><use xlink:href="#SvgjsPath1018" x="390" y="270" stroke="rgba(30, 41, 59, 1)"></use><use xlink:href="#SvgjsPath1019" x="390" y="330" stroke="rgba(30, 41, 59, 1)"></use><use xlink:href="#SvgjsPath1017" x="390" y="390" stroke="rgba(30, 41, 59, 1)"></use><use xlink:href="#SvgjsPath1021" x="390" y="450" stroke="rgba(30, 41, 59, 1)" stroke-width="3"></use><use xlink:href="#SvgjsPath1020" x="390" y="510" stroke="rgba(30, 41, 59, 1)"></use><use xlink:href="#SvgjsPath1022" x="390" y="570" stroke="rgba(30, 41, 59, 1)"></use><use xlink:href="#SvgjsPath1018" x="450" y="30" stroke="rgba(30, 41, 59, 1)"></use><use xlink:href="#SvgjsPath1017" x="450" y="90" stroke="rgba(30, 41, 59, 1)"></use><use xlink:href="#SvgjsPath1018" x="450" y="150" stroke="rgba(30, 41, 59, 1)"></use><use xlink:href="#SvgjsPath1018" x="450" y="210" stroke="rgba(30, 41, 59, 1)"></use><use xlink:href="#SvgjsPath1017" x="450" y="270" stroke="rgba(30, 41, 59, 1)"></use><use xlink:href="#SvgjsPath1021" x="450" y="330" stroke="rgba(30, 41, 59, 1)" stroke-width="3"></use><use xlink:href="#SvgjsPath1019" x="450" y="390" stroke="rgba(30, 41, 59, 1)"></use><use xlink:href="#SvgjsPath1017" x="450" y="450" stroke="rgba(30, 41, 59, 1)"></use><use xlink:href="#SvgjsPath1017" x="450" y="510" stroke="rgba(30, 41, 59, 1)"></use><use xlink:href="#SvgjsPath1018" x="450" y="570" stroke="rgba(30, 41, 59, 1)"></use><use xlink:href="#SvgjsPath1018" x="510" y="30" stroke="rgba(30, 41, 59, 1)"></use><use xlink:href="#SvgjsPath1020" x="510" y="90" stroke="rgba(30, 41, 59, 1)"></use><use xlink:href="#SvgjsPath1017" x="510" y="150" stroke="rgba(30, 41, 59, 1)"></use><use xlink:href="#SvgjsPath1021" x="510" y="210" stroke="rgba(30, 41, 59, 1)" stroke-width="3"></use><use xlink:href="#SvgjsPath1017" x="510" y="270" stroke="rgba(30, 41, 59, 1)"></use><use xlink:href="#SvgjsPath1021" x="510" y="330" stroke="rgba(30, 41, 59, 1)" stroke-width="3"></use><use xlink:href="#SvgjsPath1020" x="510" y="390" stroke="rgba(30, 41, 59, 1)"></use><use xlink:href="#SvgjsPath1017" x="510" y="450" stroke="rgba(30, 41, 59, 1)"></use><use xlink:href="#SvgjsPath1021" x="510" y="510" stroke="rgba(30, 41, 59, 1)" stroke-width="3"></use><use xlink:href="#SvgjsPath1017" x="510" y="570" stroke="rgba(30, 41, 59, 1)"></use><use xlink:href="#SvgjsPath1017" x="570" y="30" stroke="rgba(30, 41, 59, 1)"></use><use xlink:href="#SvgjsPath1017" x="570" y="90" stroke="rgba(30, 41, 59, 1)"></use><use xlink:href="#SvgjsPath1019" x="570" y="150" stroke="rgba(30, 41, 59, 1)"></use><use xlink:href="#SvgjsPath1022" x="570" y="210" stroke="rgba(30, 41, 59, 1)"></use><use xlink:href="#SvgjsPath1018" x="570" y="270" stroke="rgba(30, 41, 59, 1)"></use><use xlink:href="#SvgjsPath1017" x="570" y="330" stroke="rgba(30, 41, 59, 1)"></use><use xlink:href="#SvgjsPath1020" x="570" y="390" stroke="rgba(30, 41, 59, 1)"></use><use xlink:href="#SvgjsPath1018" x="570" y="450" stroke="rgba(30, 41, 59, 1)"></use><use xlink:href="#SvgjsPath1018" x="570" y="510" stroke="rgba(30, 41, 59, 1)"></use><use xlink:href="#SvgjsPath1017" x="570" y="570" stroke="rgba(30, 41, 59, 1)"></use><use xlink:href="#SvgjsPath1017" x="630" y="30" stroke="rgba(30, 41, 59, 1)"></use><use xlink:href="#SvgjsPath1017" x="630" y="90" stroke="rgba(30, 41, 59, 1)"></use><use xlink:href="#SvgjsPath1019" x="630" y="150" stroke="rgba(30, 41, 59, 1)"></use><use xlink:href="#SvgjsPath1022" x="630" y="210" stroke="rgba(30, 41, 59, 1)"></use><use xlink:href="#SvgjsPath1021" x="630" y="270" stroke="rgba(30, 41, 59, 1)" stroke-width="3"></use><use xlink:href="#SvgjsPath1018" x="630" y="330" stroke="rgba(30, 41, 59, 1)"></use><use xlink:href="#SvgjsPath1017" x="630" y="390" stroke="rgba(30, 41, 59, 1)"></use><use xlink:href="#SvgjsPath1018" x="630" y="450" stroke="rgba(30, 41, 59, 1)"></use><use xlink:href="#SvgjsPath1022" x="630" y="510" stroke="rgba(30, 41, 59, 1)"></use><use xlink:href="#SvgjsPath1017" x="630" y="570" stroke="rgba(30, 41, 59, 1)"></use><use xlink:href="#SvgjsPath1021" x="690" y="30" stroke="rgba(30, 41, 59, 1)" stroke-width="3"></use><use xlink:href="#SvgjsPath1018" x="690" y="90" stroke="rgba(30, 41, 59, 1)"></use><use xlink:href="#SvgjsPath1020" x="690" y="150" stroke="rgba(30, 41, 59, 1)"></use><use xlink:href="#SvgjsPath1017" x="690" y="210" stroke="rgba(30, 41, 59, 1)"></use><use xlink:href="#SvgjsPath1019" x="690" y="270" stroke="rgba(30, 41, 59, 1)"></use><use xlink:href="#SvgjsPath1017" x="690" y="330" stroke="rgba(30, 41, 59, 1)"></use><use xlink:href="#SvgjsPath1019" x="690" y="390" stroke="rgba(30, 41, 59, 1)"></use><use xlink:href="#SvgjsPath1018" x="690" y="450" stroke="rgba(30, 41, 59, 1)"></use><use xlink:href="#SvgjsPath1019" x="690" y="510" stroke="rgba(30, 41, 59, 1)"></use><use xlink:href="#SvgjsPath1020" x="690" y="570" stroke="rgba(30, 41, 59, 1)"></use></symbol></svg>