<svg width="9623" height="1982" viewBox="0 0 9623 1982" fill="none" xmlns="http://www.w3.org/2000/svg">
<rect width="9623" height="1982" fill="white"/>
<path d="M2194 1073H2290C2341.33 1073 2388.67 1064.33 2432 1047C2476 1029.67 2511.33 1003.33 2538 968C2564.67 932 2578 888 2578 836C2578 783.333 2565.33 738.667 2540 702C2515.33 664.667 2481.67 637 2439 619C2397 600.333 2350 591 2298 591H2012V1271H2194V1073ZM2292 734C2322 734 2345.67 743.333 2363 762C2381 780.667 2390 805.333 2390 836C2390 862.667 2381 885 2363 903C2345 921 2322 930 2294 930H2194V734H2292ZM2830.02 986C2850.68 970 2875.35 957 2904.02 947C2932.68 937 2959.02 932 2983.02 932L2946.02 786C2920.68 786 2893.02 792 2863.02 804C2833.02 816 2806.35 830 2783.02 846L2739.02 787H2648.02V1271H2830.02V986ZM3562.55 1031C3562.55 1083.67 3550.21 1129 3525.55 1167C3501.55 1205 3468.21 1233.67 3425.55 1253C3383.55 1272.33 3336.21 1282 3283.55 1282C3202.21 1282 3136.55 1260.33 3086.55 1217C3037.21 1173 3012.55 1109.33 3012.55 1026C3012.55 973.333 3024.55 927.667 3048.55 889C3073.21 849.667 3106.21 820 3147.55 800C3189.55 779.333 3236.21 769 3287.55 769C3341.55 769 3389.21 779 3430.55 799C3471.88 819 3504.21 848.667 3527.55 888C3550.88 927.333 3562.55 975 3562.55 1031ZM3285.55 1134C3314.21 1134 3336.21 1125.33 3351.55 1108C3366.88 1090.67 3374.55 1065 3374.55 1031C3374.55 997.667 3366.88 970.333 3351.55 949C3336.88 927.667 3316.21 917 3289.55 917C3261.55 917 3239.55 926.667 3223.55 946C3208.21 965.333 3200.55 992 3200.55 1026C3200.55 1059.33 3207.88 1085.67 3222.55 1105C3237.21 1124.33 3258.21 1134 3285.55 1134ZM4105.39 787V1287C4105.39 1328.33 4094.06 1365 4071.39 1397C4049.39 1429.67 4018.06 1455 3977.39 1473C3937.39 1491.67 3891.06 1501 3838.39 1501C3810.39 1501 3773.39 1496 3727.39 1486C3681.39 1476.67 3644.39 1463 3616.39 1445L3671.39 1317C3700.72 1331.67 3727.72 1341.33 3752.39 1346C3777.06 1351.33 3801.39 1354 3825.39 1354C3854.06 1354 3877.39 1347.33 3895.39 1334C3914.06 1321.33 3923.39 1305.33 3923.39 1286V1269C3898.72 1277.67 3874.72 1282 3851.39 1282C3776.72 1282 3716.39 1260.67 3670.39 1218C3625.06 1175.33 3602.39 1112.33 3602.39 1029C3602.39 944.333 3625.39 880 3671.39 836C3718.06 791.333 3780.72 769 3859.39 769C3907.39 769 3951.06 785 3990.39 817L4014.39 787H4105.39ZM3879.39 1142C3894.06 1142 3908.72 1137 3923.39 1127V922C3904.06 913.333 3886.72 909 3871.39 909C3848.06 909 3828.72 919.667 3813.39 941C3798.06 962.333 3790.39 991.333 3790.39 1028C3790.39 1064.67 3798.06 1093 3813.39 1113C3828.72 1132.33 3850.72 1142 3879.39 1142ZM4370.49 981C4394.49 960.333 4421.49 943.667 4451.49 931C4482.16 917.667 4509.16 911 4532.49 911L4501.49 786C4476.83 786 4449.16 793.333 4418.49 808C4387.83 822 4360.83 838 4337.49 856L4293.49 787H4213.49V1271H4370.49V981ZM5044.35 1024C5044.35 976.667 5035.68 934 5018.35 896C5001.68 858 4976.35 827.667 4942.35 805C4908.35 782.333 4866.68 771 4817.35 771C4768.02 771 4724.02 781.667 4685.35 803C4647.35 823.667 4617.68 853.667 4596.35 893C4575.02 931.667 4564.35 977 4564.35 1029C4564.35 1108.33 4589.68 1170.33 4640.35 1215C4691.68 1259.67 4761.68 1282 4850.35 1282C4889.68 1282 4925.68 1277 4958.35 1267C4991.68 1257 5019.68 1243.67 5042.35 1227L4998.35 1118C4953.02 1143.33 4907.35 1156 4861.35 1156C4790.68 1156 4748.02 1127.67 4733.35 1071H5044.35V1024ZM4731.35 982C4734.02 957.333 4742.68 937.667 4757.35 923C4772.68 907.667 4791.35 900 4813.35 900C4836.68 900 4855.02 907.667 4868.35 923C4882.35 937.667 4891.35 957.333 4895.35 982H4731.35ZM5090.77 1229C5113.43 1247 5143.77 1260.33 5181.77 1269C5219.77 1277.67 5252.1 1282 5278.77 1282C5344.77 1282 5394.77 1268.33 5428.77 1241C5463.43 1213.67 5480.77 1175 5480.77 1125C5480.77 1055.67 5425.1 1001.67 5313.77 963C5271.77 948.333 5250.77 935.667 5250.77 925C5250.77 915.667 5255.77 908 5265.77 902C5275.77 896 5288.43 893 5303.77 893C5339.77 893 5381.1 903.333 5427.77 924L5472.77 822C5449.43 804.667 5420.77 792 5386.77 784C5353.43 775.333 5324.1 771 5298.77 771C5236.1 771 5186.77 785 5150.77 813C5114.77 840.333 5096.77 878 5096.77 926C5096.77 964 5112.43 995.333 5143.77 1020C5175.1 1044.67 5215.1 1065.33 5263.77 1082C5284.43 1088.67 5300.43 1096 5311.77 1104C5323.77 1112 5329.77 1120.33 5329.77 1129C5329.77 1139 5323.43 1147 5310.77 1153C5298.77 1158.33 5284.77 1161 5268.77 1161C5251.43 1161 5230.1 1158 5204.77 1152C5180.1 1145.33 5157.43 1137 5136.77 1127L5090.77 1229ZM5527.29 1229C5549.96 1247 5580.29 1260.33 5618.29 1269C5656.29 1277.67 5688.62 1282 5715.29 1282C5781.29 1282 5831.29 1268.33 5865.29 1241C5899.96 1213.67 5917.29 1175 5917.29 1125C5917.29 1055.67 5861.62 1001.67 5750.29 963C5708.29 948.333 5687.29 935.667 5687.29 925C5687.29 915.667 5692.29 908 5702.29 902C5712.29 896 5724.96 893 5740.29 893C5776.29 893 5817.62 903.333 5864.29 924L5909.29 822C5885.96 804.667 5857.29 792 5823.29 784C5789.96 775.333 5760.62 771 5735.29 771C5672.62 771 5623.29 785 5587.29 813C5551.29 840.333 5533.29 878 5533.29 926C5533.29 964 5548.96 995.333 5580.29 1020C5611.62 1044.67 5651.62 1065.33 5700.29 1082C5720.96 1088.67 5736.96 1096 5748.29 1104C5760.29 1112 5766.29 1120.33 5766.29 1129C5766.29 1139 5759.96 1147 5747.29 1153C5735.29 1158.33 5721.29 1161 5705.29 1161C5687.96 1161 5666.62 1158 5641.29 1152C5616.62 1145.33 5593.96 1137 5573.29 1127L5527.29 1229ZM6058.81 717C6079.48 717 6096.81 710 6110.81 696C6125.48 682 6132.81 664.667 6132.81 644C6132.81 623.333 6125.48 606 6110.81 592C6096.81 578 6079.48 571 6058.81 571C6038.81 571 6021.81 578 6007.81 592C5993.81 606 5986.81 623.333 5986.81 644C5986.81 664.667 5993.81 682 6007.81 696C6021.81 710 6038.81 717 6058.81 717ZM6124.81 1271V786H5994.81V1271H6124.81ZM6481.05 1271L6672.05 786H6535.05L6429.05 1080L6317.05 768L6190.05 806L6369.05 1271H6481.05ZM7172 1027C7172 979.667 7164 937 7148 899C7132 860.333 7107.33 829.667 7074 807C7040.67 784.333 6999.67 773 6951 773C6901 773 6857.67 783.667 6821 805C6784.33 825.667 6756 855.333 6736 894C6716.67 932.667 6707 977.667 6707 1029C6707 1108.33 6730.67 1170.67 6778 1216C6826 1260.67 6896 1283 6988 1283C7027.33 1283 7061.33 1278 7090 1268C7118.67 1257.33 7145.33 1242.33 7170 1223L7132 1129C7107.33 1143 7084.33 1153.67 7063 1161C7041.67 1168.33 7017.67 1172 6991 1172C6945 1172 6910.67 1163 6888 1145C6866 1127 6851.67 1101 6845 1067H7172V1027ZM6846 980C6851.33 948.667 6863 925 6881 909C6899 892.333 6921.33 884 6948 884C6974.67 884 6996.33 892 7013 908C7030.33 924 7042.33 948 7049 980H6846ZM7390.65 1271V565L7261.65 576V1271H7390.65ZM7609.44 1294C7602.1 1314 7587.44 1330.67 7565.44 1344C7544.1 1357.33 7516.44 1371.33 7482.44 1386L7528.44 1493C7573.1 1482.33 7614.44 1462.67 7652.44 1434C7690.44 1406 7716.77 1373 7731.44 1335L7948.44 786H7811.44L7705.44 1080L7593.44 768L7465.44 806L7632.44 1237L7609.44 1294Z" fill="black"/>
<g filter="url(#filter0_d_36_16)">
<g filter="url(#filter1_d_36_16)">
<path fill-rule="evenodd" clip-rule="evenodd" d="M1022.49 1036.01V685.915L1292 860.962L1022.49 1036.01ZM1022.49 1410.35V1122.52L1371.63 897.651C1398.31 880.467 1398.31 841.457 1371.63 824.273L1043.01 612.614C1063.9 609.167 1085.36 607.374 1107.23 607.374C1323.54 607.374 1498.9 782.731 1498.9 999.045C1498.9 1128.68 1435.96 1243.6 1338.81 1314.95C1322.62 1326.84 1319.14 1349.6 1331.03 1365.79C1342.92 1381.98 1365.68 1385.46 1381.87 1373.57C1496.87 1289.11 1571.63 1152.81 1571.63 999.045C1571.63 742.562 1363.71 534.641 1107.23 534.641C850.743 534.641 642.822 742.562 642.822 999.045C642.822 1207.57 780.223 1383.9 969.353 1442.63C974.371 1445.24 980.076 1446.72 986.125 1446.72C989.085 1446.72 991.963 1446.37 994.717 1445.7C999.277 1444.7 1003.51 1442.76 1007.2 1439.99C1016.46 1433.4 1022.49 1422.58 1022.49 1410.35ZM949.758 640.315V1089.35V1357.79C811.833 1297.16 715.556 1159.31 715.556 999.045C715.556 838.745 811.855 700.937 949.758 640.315ZM1110.5 1339.17V1187.9L1222.7 1266.82L1110.5 1339.17ZM1114.24 1146.06C1097.37 1134.2 1074.13 1146.26 1074.13 1166.88V1359.19C1074.13 1379.34 1096.44 1391.5 1113.38 1380.58L1256.02 1288.61C1271.2 1278.83 1271.64 1256.79 1256.87 1246.4L1114.24 1146.06Z" fill="white"/>
<path fill-rule="evenodd" clip-rule="evenodd" d="M1022.49 1036.01V685.915L1292 860.962L1022.49 1036.01ZM1022.49 1410.35V1122.52L1371.63 897.651C1398.31 880.467 1398.31 841.457 1371.63 824.273L1043.01 612.614C1063.9 609.167 1085.36 607.374 1107.23 607.374C1323.54 607.374 1498.9 782.731 1498.9 999.045C1498.9 1128.68 1435.96 1243.6 1338.81 1314.95C1322.62 1326.84 1319.14 1349.6 1331.03 1365.79C1342.92 1381.98 1365.68 1385.46 1381.87 1373.57C1496.87 1289.11 1571.63 1152.81 1571.63 999.045C1571.63 742.562 1363.71 534.641 1107.23 534.641C850.743 534.641 642.822 742.562 642.822 999.045C642.822 1207.57 780.223 1383.9 969.353 1442.63C974.371 1445.24 980.076 1446.72 986.125 1446.72C989.085 1446.72 991.963 1446.37 994.717 1445.7C999.277 1444.7 1003.51 1442.76 1007.2 1439.99C1016.46 1433.4 1022.49 1422.58 1022.49 1410.35ZM949.758 640.315V1089.35V1357.79C811.833 1297.16 715.556 1159.31 715.556 999.045C715.556 838.745 811.855 700.937 949.758 640.315ZM1110.5 1339.17V1187.9L1222.7 1266.82L1110.5 1339.17ZM1114.24 1146.06C1097.37 1134.2 1074.13 1146.26 1074.13 1166.88V1359.19C1074.13 1379.34 1096.44 1391.5 1113.38 1380.58L1256.02 1288.61C1271.2 1278.83 1271.64 1256.79 1256.87 1246.4L1114.24 1146.06Z" fill="url(#paint0_linear_36_16)"/>
<path fill-rule="evenodd" clip-rule="evenodd" d="M1022.49 1036.01V685.915L1292 860.962L1022.49 1036.01ZM1022.49 1410.35V1122.52L1371.63 897.651C1398.31 880.467 1398.31 841.457 1371.63 824.273L1043.01 612.614C1063.9 609.167 1085.36 607.374 1107.23 607.374C1323.54 607.374 1498.9 782.731 1498.9 999.045C1498.9 1128.68 1435.96 1243.6 1338.81 1314.95C1322.62 1326.84 1319.14 1349.6 1331.03 1365.79C1342.92 1381.98 1365.68 1385.46 1381.87 1373.57C1496.87 1289.11 1571.63 1152.81 1571.63 999.045C1571.63 742.562 1363.71 534.641 1107.23 534.641C850.743 534.641 642.822 742.562 642.822 999.045C642.822 1207.57 780.223 1383.9 969.353 1442.63C974.371 1445.24 980.076 1446.72 986.125 1446.72C989.085 1446.72 991.963 1446.37 994.717 1445.7C999.277 1444.7 1003.51 1442.76 1007.2 1439.99C1016.46 1433.4 1022.49 1422.58 1022.49 1410.35ZM949.758 640.315V1089.35V1357.79C811.833 1297.16 715.556 1159.31 715.556 999.045C715.556 838.745 811.855 700.937 949.758 640.315ZM1110.5 1339.17V1187.9L1222.7 1266.82L1110.5 1339.17ZM1114.24 1146.06C1097.37 1134.2 1074.13 1146.26 1074.13 1166.88V1359.19C1074.13 1379.34 1096.44 1391.5 1113.38 1380.58L1256.02 1288.61C1271.2 1278.83 1271.64 1256.79 1256.87 1246.4L1114.24 1146.06Z" fill="white" fill-opacity="0.1"/>
</g>
</g>
<defs>
<filter id="filter0_d_36_16" x="638.822" y="534.641" width="936.809" height="920.08" filterUnits="userSpaceOnUse" color-interpolation-filters="sRGB">
<feFlood flood-opacity="0" result="BackgroundImageFix"/>
<feColorMatrix in="SourceAlpha" type="matrix" values="0 0 0 0 0 0 0 0 0 0 0 0 0 0 0 0 0 0 127 0" result="hardAlpha"/>
<feOffset dy="4"/>
<feGaussianBlur stdDeviation="2"/>
<feComposite in2="hardAlpha" operator="out"/>
<feColorMatrix type="matrix" values="0 0 0 0 0 0 0 0 0 0 0 0 0 0 0 0 0 0 0.25 0"/>
<feBlend mode="normal" in2="BackgroundImageFix" result="effect1_dropShadow_36_16"/>
<feBlend mode="normal" in="SourceGraphic" in2="effect1_dropShadow_36_16" result="shape"/>
</filter>
<filter id="filter1_d_36_16" x="638.822" y="534.641" width="936.809" height="920.08" filterUnits="userSpaceOnUse" color-interpolation-filters="sRGB">
<feFlood flood-opacity="0" result="BackgroundImageFix"/>
<feColorMatrix in="SourceAlpha" type="matrix" values="0 0 0 0 0 0 0 0 0 0 0 0 0 0 0 0 0 0 127 0" result="hardAlpha"/>
<feOffset dy="4"/>
<feGaussianBlur stdDeviation="2"/>
<feComposite in2="hardAlpha" operator="out"/>
<feColorMatrix type="matrix" values="0 0 0 0 0 0 0 0 0 0 0 0 0 0 0 0 0 0 0.25 0"/>
<feBlend mode="normal" in2="BackgroundImageFix" result="effect1_dropShadow_36_16"/>
<feBlend mode="normal" in="SourceGraphic" in2="effect1_dropShadow_36_16" result="shape"/>
</filter>
<linearGradient id="paint0_linear_36_16" x1="1528.93" y1="661.2" x2="708.918" y2="1629.24" gradientUnits="userSpaceOnUse">
<stop stop-color="#F8B9CE"/>
<stop offset="0.279677" stop-color="#9F47A0"/>
<stop offset="0.624442" stop-color="#430A8B"/>
<stop offset="1" stop-color="#1E4EC8"/>
</linearGradient>
</defs>
</svg>
