<svg width="101" height="100" viewBox="0 0 101 100" fill="none" xmlns="http://www.w3.org/2000/svg">
<path fill-rule="evenodd" clip-rule="evenodd" d="M76.3218 32.1732L39.4462 8.39269L37.3303 11.6819H33.3784V62.6552C33.3784 66.3989 37.5163 68.6585 40.6597 66.6314L79.0416 41.8795C80.014 41.2524 80.6589 40.3572 80.9765 39.3743C81.3044 38.5599 81.4943 37.5935 81.4943 36.5571C81.4943 33.6526 80.0028 31.298 78.1628 31.298C77.4822 31.298 76.8492 31.6202 76.3218 32.1732ZM41.251 56.874V18.9326L70.0978 38.0943L41.251 56.874Z" fill="#1D3C80"/>
<path fill-rule="evenodd" clip-rule="evenodd" d="M54.0096 76.7833C53.7114 76.5847 53.3045 76.7904 53.3045 77.1397V86.79C53.3045 87.1315 53.6953 87.3387 53.9946 87.1559L61.5525 82.5406C61.8245 82.3745 61.8324 81.9948 61.5675 81.8183L54.0096 76.7833Z" fill="#1D3C80"/>
<path fill-rule="evenodd" clip-rule="evenodd" d="M42.2274 53.8726C41.8043 54.146 41.2466 53.842 41.2466 53.338L41.2466 17.6218C41.2466 17.1162 41.8073 16.8125 42.2303 17.089L69.7057 35.0529C70.0911 35.3048 70.0896 35.8703 69.7028 36.1202L42.2274 53.8726ZM41.2466 95.2031V64.2588C41.2466 64.0425 41.3564 63.841 41.5382 63.7239L79.1762 39.4647C82.0746 37.5966 82.0746 33.3556 79.1762 31.4875L44.8624 9.37095C44.3732 9.05564 44.5306 8.31222 45.108 8.23982C46.8585 8.02032 48.642 7.90723 50.452 7.90723C73.9519 7.90723 93.0024 26.9711 93.0024 50.4877C93.0024 64.5806 86.1647 77.0748 75.6111 84.8313C73.8524 86.1238 73.4738 88.5983 74.7654 90.3581C76.0571 92.118 78.5298 92.4969 80.2884 91.2044C92.7818 82.0222 100.904 67.2038 100.904 50.4877C100.904 22.6041 78.3159 0 50.452 0C22.5881 0 0 22.6041 0 50.4877C0 73.1369 14.9004 92.2934 35.4189 98.695C35.4551 98.7063 35.4904 98.7209 35.5243 98.738C36.0571 99.0059 36.6588 99.1567 37.2958 99.1567C37.6179 99.1567 37.9311 99.1181 38.2309 99.0453C38.7251 98.9367 39.1836 98.7258 39.5844 98.4262C40.5905 97.7095 41.2466 96.533 41.2466 95.2031ZM32.4573 11.8912C32.8731 11.6967 33.3449 12.0039 33.3449 12.4633L33.3449 60.3057V88.5133C33.3449 88.9727 32.8731 89.2799 32.4573 89.0854C17.9495 82.3005 7.90165 67.5643 7.90165 50.4877C7.90165 33.4069 17.9518 18.6752 32.4573 11.8912ZM52.2998 90.8557C51.8767 91.1284 51.3196 90.8244 51.3196 90.3207V73.2862C51.3196 72.7708 51.8997 72.4692 52.3211 72.7655L64.9602 81.6532C65.3295 81.9129 65.3184 82.4642 64.9389 82.7088L52.2998 90.8557ZM51.7995 66.6889C49.6328 65.1653 46.6479 66.7146 46.6479 69.3628V94.0579C46.6479 96.6463 49.5141 98.2081 51.6902 96.8054L70.0132 84.9948C71.963 83.738 72.0201 80.9078 70.1226 79.5735L51.7995 66.6889Z" fill="white"/>
<path fill-rule="evenodd" clip-rule="evenodd" d="M42.2274 53.8726C41.8043 54.146 41.2466 53.842 41.2466 53.338L41.2466 17.6218C41.2466 17.1162 41.8073 16.8125 42.2303 17.089L69.7057 35.0529C70.0911 35.3048 70.0896 35.8703 69.7028 36.1202L42.2274 53.8726ZM41.2466 95.2031V64.2588C41.2466 64.0425 41.3564 63.841 41.5382 63.7239L79.1762 39.4647C82.0746 37.5966 82.0746 33.3556 79.1762 31.4875L44.8624 9.37095C44.3732 9.05564 44.5306 8.31222 45.108 8.23982C46.8585 8.02032 48.642 7.90723 50.452 7.90723C73.9519 7.90723 93.0024 26.9711 93.0024 50.4877C93.0024 64.5806 86.1647 77.0748 75.6111 84.8313C73.8524 86.1238 73.4738 88.5983 74.7654 90.3581C76.0571 92.118 78.5298 92.4969 80.2884 91.2044C92.7818 82.0222 100.904 67.2038 100.904 50.4877C100.904 22.6041 78.3159 0 50.452 0C22.5881 0 0 22.6041 0 50.4877C0 73.1369 14.9004 92.2934 35.4189 98.695C35.4551 98.7063 35.4904 98.7209 35.5243 98.738C36.0571 99.0059 36.6588 99.1567 37.2958 99.1567C37.6179 99.1567 37.9311 99.1181 38.2309 99.0453C38.7251 98.9367 39.1836 98.7258 39.5844 98.4262C40.5905 97.7095 41.2466 96.533 41.2466 95.2031ZM32.4573 11.8912C32.8731 11.6967 33.3449 12.0039 33.3449 12.4633L33.3449 60.3057V88.5133C33.3449 88.9727 32.8731 89.2799 32.4573 89.0854C17.9495 82.3005 7.90165 67.5643 7.90165 50.4877C7.90165 33.4069 17.9518 18.6752 32.4573 11.8912ZM52.2998 90.8557C51.8767 91.1284 51.3196 90.8244 51.3196 90.3207V73.2862C51.3196 72.7708 51.8997 72.4692 52.3211 72.7655L64.9602 81.6532C65.3295 81.9129 65.3184 82.4642 64.9389 82.7088L52.2998 90.8557ZM51.7995 66.6889C49.6328 65.1653 46.6479 66.7146 46.6479 69.3628V94.0579C46.6479 96.6463 49.5141 98.2081 51.6902 96.8054L70.0132 84.9948C71.963 83.738 72.0201 80.9078 70.1226 79.5735L51.7995 66.6889Z" fill="url(#paint0_linear_97_140)"/>
<path fill-rule="evenodd" clip-rule="evenodd" d="M42.2274 53.8726C41.8043 54.146 41.2466 53.842 41.2466 53.338L41.2466 17.6218C41.2466 17.1162 41.8073 16.8125 42.2303 17.089L69.7057 35.0529C70.0911 35.3048 70.0896 35.8703 69.7028 36.1202L42.2274 53.8726ZM41.2466 95.2031V64.2588C41.2466 64.0425 41.3564 63.841 41.5382 63.7239L79.1762 39.4647C82.0746 37.5966 82.0746 33.3556 79.1762 31.4875L44.8624 9.37095C44.3732 9.05564 44.5306 8.31222 45.108 8.23982C46.8585 8.02032 48.642 7.90723 50.452 7.90723C73.9519 7.90723 93.0024 26.9711 93.0024 50.4877C93.0024 64.5806 86.1647 77.0748 75.6111 84.8313C73.8524 86.1238 73.4738 88.5983 74.7654 90.3581C76.0571 92.118 78.5298 92.4969 80.2884 91.2044C92.7818 82.0222 100.904 67.2038 100.904 50.4877C100.904 22.6041 78.3159 0 50.452 0C22.5881 0 0 22.6041 0 50.4877C0 73.1369 14.9004 92.2934 35.4189 98.695C35.4551 98.7063 35.4904 98.7209 35.5243 98.738C36.0571 99.0059 36.6588 99.1567 37.2958 99.1567C37.6179 99.1567 37.9311 99.1181 38.2309 99.0453C38.7251 98.9367 39.1836 98.7258 39.5844 98.4262C40.5905 97.7095 41.2466 96.533 41.2466 95.2031ZM32.4573 11.8912C32.8731 11.6967 33.3449 12.0039 33.3449 12.4633L33.3449 60.3057V88.5133C33.3449 88.9727 32.8731 89.2799 32.4573 89.0854C17.9495 82.3005 7.90165 67.5643 7.90165 50.4877C7.90165 33.4069 17.9518 18.6752 32.4573 11.8912ZM52.2998 90.8557C51.8767 91.1284 51.3196 90.8244 51.3196 90.3207V73.2862C51.3196 72.7708 51.8997 72.4692 52.3211 72.7655L64.9602 81.6532C65.3295 81.9129 65.3184 82.4642 64.9389 82.7088L52.2998 90.8557ZM51.7995 66.6889C49.6328 65.1653 46.6479 66.7146 46.6479 69.3628V94.0579C46.6479 96.6463 49.5141 98.2081 51.6902 96.8054L70.0132 84.9948C71.963 83.738 72.0201 80.9078 70.1226 79.5735L51.7995 66.6889Z" fill="white" fill-opacity="0.1"/>
<defs>
<linearGradient id="paint0_linear_97_140" x1="96.2647" y1="13.7589" x2="7.10721" y2="118.937" gradientUnits="userSpaceOnUse">
<stop stop-color="#F8B9CE"/>
<stop offset="0.279677" stop-color="#9F47A0"/>
<stop offset="0.624442" stop-color="#430A8B"/>
<stop offset="1" stop-color="#1E4EC8"/>
</linearGradient>
</defs>
</svg>
