<svg version="1.1" xmlns="http://www.w3.org/2000/svg" viewBox="0 0 919.3250531393383 292.8102035522458" width="919.3250531393383" height="292.8102035522458">
  <!-- svg-source:excalidraw -->
  
  <defs>
    <style>
      @font-face {
        font-family: "Virgil";
        src: url("https://excalidraw.com/Virgil.woff2");
      }
      @font-face {
        font-family: "Cascadia";
        src: url("https://excalidraw.com/Cascadia.woff2");
      }
    </style>
  </defs>
  <rect x="0" y="0" width="919.3250531393383" height="292.8102035522458" fill="#ffffff"></rect><g stroke-linecap="round" transform="translate(10 21.72864580911306) rotate(0 92.91236877441409 77.78963470458984)"><path d="M-1.32 1.26 L184.42 1.95 L185.58 155.47 L-1.07 154.83" stroke="none" stroke-width="0" fill="#ffffff"></path><path d="M0.18 1.79 C54.48 -0.43, 110.4 0.33, 185.19 1.78 M0.31 0.04 C51.79 0.11, 102.54 0.62, 186.39 -0.02 M185.89 0.09 C183.79 33.7, 185.76 64.62, 184.93 153.64 M186.76 -0.39 C186.5 37.69, 186.05 76.32, 186.28 156.53 M185.09 154.89 C144.19 152.58, 99.47 153.6, -0.89 154.73 M185.94 154.94 C115.63 155.95, 46.26 156.25, -0.99 156.18 M1.09 156.16 C0.67 123.98, -0.64 88.86, 1.25 0.67 M-0.38 155.72 C2.3 112.79, 0.85 69.07, 0.67 -0.61" stroke="#364fc7" stroke-width="1" fill="none"></path></g><g stroke-linecap="round" transform="translate(18.784230550130133 32.453346736847436) rotate(0 83.34515380859378 9.246536254882812)"><path d="M0.66 -1.88 C56.12 -0.01, 109.25 -2.45, 167.56 -0.75 M-0.52 -0.68 C53.07 -0.81, 104.14 0.43, 165.99 0.98 M166 0 C167.86 6.37, 165.02 10.37, 167.81 18.01 M167.47 0.6 C166.15 4.51, 166.19 8.36, 167.31 18.33 M164.98 19.48 C115.5 19.94, 65.82 18.78, -0.24 19.65 M166.82 17.93 C112.58 17.22, 60.81 17.76, -0.03 18.36 M1.67 19.9 C-0.55 15.42, -1.6 11.47, -1.45 0.84 M-0.77 17.78 C-0.62 12.17, -0.6 5.03, -0.44 -0.12" stroke="#364fc7" stroke-width="1" fill="none"></path></g><g stroke-linecap="round" transform="translate(78.75813802083331 100.52108050149587) rotate(0 27.3341064453125 11.506057739257812)"><path d="M5.75 0 M5.75 0 C20.36 0.53, 36.72 1.46, 48.92 0 M5.75 0 C20.19 -0.92, 33.92 0.84, 48.92 0 M48.92 0 C53.83 -0.79, 55.26 3.6, 54.67 5.75 M48.92 0 C50.73 -0.14, 52.77 2.58, 54.67 5.75 M54.67 5.75 C55.78 8.96, 54.22 11.48, 54.67 17.26 M54.67 5.75 C54.38 8.52, 54.56 10.27, 54.67 17.26 M54.67 17.26 C53.44 20.59, 51.84 23.58, 48.92 23.01 M54.67 17.26 C52.48 22.01, 51.96 20.9, 48.92 23.01 M48.92 23.01 C31.31 24.31, 15.84 24.01, 5.75 23.01 M48.92 23.01 C34.5 22.46, 19.13 22.89, 5.75 23.01 M5.75 23.01 C2.41 22.56, -1.95 23.08, 0 17.26 M5.75 23.01 C2.89 23.57, 0.18 21.89, 0 17.26 M0 17.26 C0.73 12.1, -0.55 7.71, 0 5.75 M0 17.26 C-0.56 14.25, -0.4 11.19, 0 5.75 M0 5.75 C1.01 1.52, 0.93 0.57, 5.75 0 M0 5.75 C-1.19 0.56, 0.15 -2.24, 5.75 0" stroke="#364fc7" stroke-width="1" fill="none"></path></g><g stroke-linecap="round" transform="translate(106.5237630208332 102.25852251809744) rotate(0 11.129913330078125 9.824493408203125)"><path d="M1.88 4.29 C1.88 4.29, 1.88 4.29, 1.88 4.29 M1.88 4.29 C1.88 4.29, 1.88 4.29, 1.88 4.29 M0.52 9.46 C4.31 8.8, 5.68 5.33, 10.27 1.91 M0.98 11.1 C4.2 7.98, 5.38 5.76, 10.16 1.38 M2.35 16.38 C8.45 10.16, 9.71 4.83, 15.31 1.65 M3.31 14.44 C6.11 11.95, 10.35 8.34, 13.95 1.37 M4.48 20.73 C11.56 13.74, 13.78 7.41, 17.46 2.16 M4.73 18.48 C11.09 13.99, 14.67 7.3, 18.28 4.38 M9.3 20.1 C10.29 17.24, 14.96 13.27, 22.47 3.79 M8.22 20.23 C10.79 17.44, 13.92 15.45, 21.35 5.92 M16.82 18.44 C17.58 15.79, 19.95 11.47, 24.37 7.19 M15.86 18.76 C18.18 16.2, 21.36 13.37, 24.5 8.5" stroke="#40c057" stroke-width="0.5" fill="none"></path><path d="M8.91 -0.56 C10.92 -0.91, 13.56 0.4, 15.8 1.48 C18.05 2.55, 21.4 4.02, 22.39 5.89 C23.39 7.76, 22.78 10.72, 21.77 12.68 C20.75 14.64, 18.48 16.36, 16.3 17.65 C14.12 18.95, 10.92 20.52, 8.68 20.44 C6.44 20.36, 4.4 19.03, 2.84 17.18 C1.28 15.32, -0.49 11.43, -0.68 9.32 C-0.87 7.21, -0.33 6.14, 1.71 4.49 C3.75 2.84, 9.55 0.11, 11.56 -0.56 C13.57 -1.23, 13.88 0.14, 13.76 0.49 M13.93 -1.12 C16.18 -0.88, 17.96 1.42, 19.46 3.44 C20.96 5.46, 22.9 8.95, 22.92 11 C22.93 13.04, 21.31 14.2, 19.55 15.71 C17.78 17.22, 14.79 19.39, 12.31 20.06 C9.82 20.73, 6.72 20.86, 4.63 19.75 C2.54 18.63, 0.29 15.55, -0.23 13.37 C-0.75 11.18, 0.66 8.49, 1.49 6.65 C2.32 4.81, 2.84 3.41, 4.74 2.31 C6.64 1.21, 11.7 0.21, 12.9 0.03 C14.11 -0.15, 11.89 0.92, 11.96 1.22" stroke="#364fc7" stroke-width="1" fill="none"></path></g><g transform="translate(48.809865315755076 76.09311724465994) rotate(0 54.5 10)"><text x="0" y="14" font-family="Virgil, Segoe UI Emoji" font-size="16px" fill="#364fc7" text-anchor="start" style="white-space: pre;" direction="ltr">New homepage</text></g><g transform="translate(29.576802571614508 32.268181331574) rotate(0 72.00000000000003 10)"><text x="0" y="14" font-family="Virgil, Segoe UI Emoji" font-size="16px" fill="#364fc7" text-anchor="start" style="white-space: pre;" direction="ltr">https://dashboard</text></g><g stroke-linecap="round" transform="translate(365.516165112692 24.4273387363979) rotate(0 93.41326032366067 67.33154296875001)"><path d="M8.31 8.54 C8.31 8.54, 8.31 8.54, 8.31 8.54 M8.31 8.54 C8.31 8.54, 8.31 8.54, 8.31 8.54 M7.39 15.7 C8.47 12.74, 11.74 9.44, 19.2 2.11 M7.39 15.7 C11.47 10.71, 15.46 6.1, 19.2 2.11 M2.53 27.38 C6.81 20.71, 15.08 12.63, 24.84 1.72 M2.53 27.38 C8 19.51, 14.65 12.71, 24.84 1.72 M2.27 33.78 C10.85 25.98, 16.75 16.32, 31.14 0.57 M2.27 33.78 C8.55 24.99, 17.16 18.22, 31.14 0.57 M2.67 39.42 C12.65 27.63, 21.9 15.32, 35.47 1.68 M2.67 39.42 C12.46 27.33, 22.03 16.13, 35.47 1.68 M2.41 45.82 C19.2 27.14, 31.69 13.41, 41.11 1.29 M2.41 45.82 C10.34 35.23, 19.45 24.49, 41.11 1.29 M2.14 52.21 C11.26 42, 21.23 31, 46.1 1.65 M2.14 52.21 C14.19 37.47, 26.04 22.72, 46.1 1.65 M2.54 57.86 C16.8 41.28, 33.04 21.72, 51.74 1.25 M2.54 57.86 C16.19 42.09, 29.09 27.77, 51.74 1.25 M2.28 64.26 C15.75 47.8, 33.08 26.53, 56.73 1.61 M2.28 64.26 C23.29 40.94, 43.91 17.44, 56.73 1.61 M2.67 69.9 C21.32 45.61, 43.24 19.69, 61.72 1.97 M2.67 69.9 C24.27 44.5, 45.86 19.36, 61.72 1.97 M2.41 76.3 C19.31 61.1, 30.96 43.86, 67.36 1.58 M2.41 76.3 C18 58.61, 34.34 39.61, 67.36 1.58 M2.15 82.69 C22 60.35, 40.09 36.45, 72.35 1.94 M2.15 82.69 C19.44 61.85, 38.21 39.51, 72.35 1.94 M2.54 88.34 C23.84 65.86, 44.29 40.75, 77.99 1.55 M2.54 88.34 C28.54 58.74, 54.41 28.6, 77.99 1.55 M2.28 94.73 C23.46 72.97, 43.15 47.14, 82.98 1.91 M2.28 94.73 C29.74 61.05, 58.75 28.92, 82.98 1.91 M2.68 100.38 C24.72 75.44, 45.56 51.27, 88.62 1.51 M2.68 100.38 C22.97 76.23, 41.67 52.5, 88.62 1.51 M0.45 109.04 C25.58 78.03, 54.36 51.37, 93.61 1.87 M0.45 109.04 C35.24 68.72, 69.94 28.3, 93.61 1.87 M1.5 113.93 C36.64 74.1, 74.41 31.56, 99.25 1.48 M1.5 113.93 C29.6 81.1, 57.69 49.86, 99.25 1.48 M3.86 117.31 C39.64 74.72, 77.45 35.75, 104.24 1.84 M3.86 117.31 C39.97 76.96, 76.1 36.23, 104.24 1.84 M6.22 120.69 C44.76 75.8, 83.15 32.02, 109.88 1.44 M6.22 120.69 C44.79 77.63, 81.79 33.87, 109.88 1.44 M7.93 124.82 C47.84 78.9, 86.94 33.35, 114.87 1.8 M7.93 124.82 C33.74 97.05, 57.55 68.31, 114.87 1.8 M10.29 128.2 C35.64 97.46, 62.11 70.09, 120.51 1.41 M10.29 128.2 C46.99 86.42, 83.13 46.5, 120.51 1.41 M13.97 130.07 C53.3 84.26, 91.94 43.19, 125.5 1.77 M13.97 130.07 C38.89 103.55, 61.25 75.4, 125.5 1.77 M17.64 131.94 C43.08 99.44, 69.95 68.51, 131.14 1.37 M17.64 131.94 C55.83 86.46, 95.22 40.53, 131.14 1.37 M20.66 134.56 C69.18 83.54, 113.18 28.13, 136.13 1.73 M20.66 134.56 C49 101.38, 77.75 68.1, 136.13 1.73 M25.65 134.92 C61.65 92.5, 99.42 52.69, 141.77 1.34 M25.65 134.92 C72.41 82.9, 117.39 29.31, 141.77 1.34 M30.64 135.28 C56.86 105.25, 84.61 73.42, 146.76 1.7 M30.64 135.28 C70.53 88.29, 112.65 41, 146.76 1.7 M34.97 136.4 C66.62 97.33, 99.75 59.96, 153.06 0.55 M34.97 136.4 C73.69 91.21, 114.31 45.05, 153.06 0.55 M40.61 136 C87.04 82.84, 135.68 27.42, 158.04 0.91 M40.61 136 C74.64 97.69, 109.08 59.78, 158.04 0.91 M45.6 136.36 C71.12 108.81, 94.15 77.86, 163.03 1.27 M45.6 136.36 C73.74 103.3, 103.02 69.6, 163.03 1.27 M51.24 135.97 C77.57 105.32, 105.04 73.9, 167.36 2.38 M51.24 135.97 C80.22 102.38, 111.03 68.72, 167.36 2.38 M56.23 136.33 C92.5 97.54, 124.58 56.85, 171.04 4.25 M56.23 136.33 C92.62 96.84, 126.23 57.01, 171.04 4.25 M61.87 135.93 C99.44 92.73, 140.77 44.89, 174.06 6.88 M61.87 135.93 C88.2 107.49, 113.32 77.78, 174.06 6.88 M66.86 136.29 C103.63 93.42, 143.01 50.82, 177.73 8.75 M66.86 136.29 C97.92 101.1, 127.86 66.26, 177.73 8.75 M72.5 135.9 C108.87 94.3, 149.02 50.52, 181.41 10.62 M72.5 135.9 C94.65 109.7, 119.01 84.44, 181.41 10.62 M77.49 136.26 C104.38 103.44, 135.15 69.75, 183.11 14.75 M77.49 136.26 C104.52 106.6, 130.8 76.57, 183.11 14.75 M83.13 135.86 C110.13 106.13, 136.35 75.43, 184.82 18.88 M83.13 135.86 C121.13 91.69, 158.46 48.36, 184.82 18.88 M88.12 136.22 C114.17 105, 136.93 79.69, 185.21 24.53 M88.12 136.22 C117.22 103.36, 146.59 70.26, 185.21 24.53 M93.76 135.83 C121.89 100.62, 152.75 68.81, 186.26 29.42 M93.76 135.83 C123.68 101.58, 153.42 66.03, 186.26 29.42 M98.75 136.19 C131.54 97.51, 164.45 61.21, 187.31 34.3 M98.75 136.19 C133.25 96.59, 167.51 58.01, 187.31 34.3 M104.39 135.8 C124.15 112.7, 143.94 91.87, 187.05 40.7 M104.39 135.8 C124.46 112.2, 146.05 87.42, 187.05 40.7 M109.38 136.16 C133.56 110.09, 156.78 81.34, 187.45 46.34 M109.38 136.16 C135.88 106.58, 159.65 76.37, 187.45 46.34 M115.02 135.76 C134.35 112.56, 156.87 89.39, 187.19 52.74 M115.02 135.76 C141.38 105.38, 165.93 76.26, 187.19 52.74 M120.01 136.12 C141.28 112.33, 160.54 92.68, 186.92 59.14 M120.01 136.12 C144.75 105.86, 172.07 76.86, 186.92 59.14 M125.65 135.73 C140.15 121.49, 151.93 104.6, 187.32 64.78 M125.65 135.73 C139.45 120.29, 153.1 103.62, 187.32 64.78 M130.64 136.09 C154.47 112.56, 176.5 86.12, 187.06 71.18 M130.64 136.09 C144.07 120.78, 159.13 103, 187.06 71.18 M136.28 135.69 C154.19 114.99, 172.83 94.65, 186.8 77.58 M136.28 135.69 C150.39 120.5, 164.01 104.07, 186.8 77.58 M141.27 136.05 C159.99 117.82, 176.2 97.87, 187.19 83.22 M141.27 136.05 C155.64 119.69, 170.09 104.23, 187.19 83.22 M146.25 136.41 C158.37 121.76, 173.39 107.44, 186.93 89.62 M146.25 136.41 C156.96 122.98, 167.2 111.1, 186.93 89.62 M151.9 136.02 C159 127, 165.94 116.86, 186.67 96.02 M151.9 136.02 C162.69 123.57, 174.76 109.17, 186.67 96.02 M156.23 137.13 C163.45 126.82, 172.19 118.3, 187.06 101.66 M156.23 137.13 C163.97 128.45, 171.92 118.81, 187.06 101.66 M161.87 136.74 C170.87 128.1, 174.04 120.07, 186.8 108.06 M161.87 136.74 C169.01 129.38, 174.27 121.75, 186.8 108.06 M169.48 134.08 C176.73 126.73, 180.39 119.1, 185.23 115.97 M169.48 134.08 C175.61 126.13, 181.68 120.88, 185.23 115.97" stroke="#868e96" stroke-width="0.5" fill="none"></path><path d="M33.67 0 M33.67 0 C65.09 0.58, 99.42 -0.6, 153.16 0 M33.67 0 C70.32 0.02, 107.95 0.07, 153.16 0 M153.16 0 C177.18 -1.9, 186.34 12.45, 186.83 33.67 M153.16 0 C175.79 -0.8, 186.04 11.54, 186.83 33.67 M186.83 33.67 C185.94 51.24, 188.01 68.41, 186.83 101 M186.83 33.67 C186.63 54.14, 186.99 76.72, 186.83 101 M186.83 101 C188.02 124.65, 176.34 133.61, 153.16 134.66 M186.83 101 C187.93 125.58, 175.5 133.59, 153.16 134.66 M153.16 134.66 C106.08 132.72, 57.72 135.19, 33.67 134.66 M153.16 134.66 C123.44 134.84, 96.27 135.19, 33.67 134.66 M33.67 134.66 C11.52 133.18, -0.21 124.57, 0 101 M33.67 134.66 C10.75 134.62, -1.64 123.1, 0 101 M0 101 C-0.22 80.61, 1.28 62.4, 0 33.67 M0 101 C1.23 82.66, 0.79 64.33, 0 33.67 M0 33.67 C-0.76 12.39, 9.53 -0.22, 33.67 0 M0 33.67 C1.36 10.38, 11.36 0.39, 33.67 0" stroke="#364fc7" stroke-width="1" fill="none"></path></g><g stroke-linecap="round" transform="translate(398.27233838278124 52.20384979248047) rotate(0 63.17587716238836 43.0718776157924)"><path d="M20.41 -1.88 L106.8 0.82 L114.47 1.11 L121.04 5.11 L124.98 10.87 L125.77 21.63 L127.97 67.76 L121.29 78.97 L113.69 83.63 L106.39 85.49 L22.78 88.13 L10.54 84.62 L6.94 79.42 L0.93 70.65 L-1.57 16.45 L3.65 4.63 L10.15 0.4 L21.64 -0.01" stroke="none" stroke-width="0" fill="#fff"></path><path d="M21.54 0 M21.54 0 C46.29 0.48, 73.01 -0.44, 104.82 0 M21.54 0 C45.62 0.83, 68.84 0.06, 104.82 0 M104.82 0 C119.8 0.23, 124.96 6.71, 126.35 21.54 M104.82 0 C118.64 -1.46, 126.14 6.21, 126.35 21.54 M126.35 21.54 C128.22 30.12, 124.98 41.81, 126.35 64.61 M126.35 21.54 C125.46 34.06, 126.13 47.04, 126.35 64.61 M126.35 64.61 C126.92 79.65, 120.24 86.88, 104.82 86.14 M126.35 64.61 C127.91 76.72, 119.28 85.12, 104.82 86.14 M104.82 86.14 C88.82 85.32, 70.39 84.76, 21.54 86.14 M104.82 86.14 C77.53 86.4, 52.36 85.03, 21.54 86.14 M21.54 86.14 C7.31 85.01, 1.11 79.29, 0 64.61 M21.54 86.14 C7.62 87.53, 1.67 78.49, 0 64.61 M0 64.61 C0.24 53.49, -1.63 40.3, 0 21.54 M0 64.61 C-0.95 53.93, -0.48 41.41, 0 21.54 M0 21.54 C-0.46 7.25, 7.44 0.44, 21.54 0 M0 21.54 C1.9 7.18, 7.84 0.99, 21.54 0" stroke="#364fc7" stroke-width="1" fill="none"></path></g><g transform="translate(429.7918521941652 83.71866825648715) rotate(0 32 10)"><text x="0" y="14" font-family="Virgil, Segoe UI Emoji" font-size="16px" fill="#364fc7" text-anchor="start" style="white-space: pre;" direction="ltr">Backend</text></g><g stroke-linecap="round" transform="translate(723.5003155905101 10) rotate(0 92.91236877441406 77.78963470458984)"><path d="M0.57 -1.97 C68.96 -0.87, 140.84 -1.55, 185.47 -1.47 M0.84 0.7 C54.98 1.4, 111.05 -0.07, 185.85 -0.61 M185.27 -0.38 C186.14 53.74, 183.71 110.86, 186.13 156.4 M185.01 0.69 C186.18 47.56, 186.95 95.08, 185.83 155.8 M184.65 156.88 C129.75 157.22, 74.12 154.83, -0.97 156.6 M186.41 154.95 C125.91 155.97, 65.57 157.14, 0.83 156.4 M0.77 154.99 C-0.01 100.77, 1.64 48.26, -1.55 -0.6 M-0.81 154.73 C0.45 105.84, 0.39 57.39, 0.69 0.57" stroke="#000000" stroke-width="1" fill="none"></path></g><g stroke-linecap="round" transform="translate(732.4293011862133 20.724700927734375) rotate(0 83.34515380859375 9.246536254882812)"><path d="M-1.97 -1.79 C56.98 -1.14, 112.59 -0.83, 165.22 -0.07 M0.7 -0.13 C57.61 -0.55, 113.18 -1.38, 166.08 0.57 M166.34 1.4 C164.94 3.28, 166.39 8.54, 167.45 18.59 M167.33 -0.57 C166.7 6.84, 166.75 13.42, 166.89 18.54 M167.99 19.07 C130.4 19.11, 89.88 16.54, 1.02 19 M166.06 19 C114.7 20.05, 64.56 20.3, 0.82 18.96 M-0.55 18.02 C-0.97 14.59, 0.35 7.16, -0.55 0.28 M-0.79 18.49 C-0.57 13.42, -0.07 9.12, 0.53 0.78" stroke="#000000" stroke-width="1" fill="none"></path></g><g transform="translate(758.4483267163471 78.04347446986606) rotate(0 60.5 20)"><text x="60.5" y="14" font-family="Virgil, Segoe UI Emoji" font-size="16px" fill="#000000" text-anchor="middle" style="white-space: pre;" direction="ltr">This is the new</text><text x="60.5" y="34" font-family="Virgil, Segoe UI Emoji" font-size="16px" fill="#000000" text-anchor="middle" style="white-space: pre;" direction="ltr">homepage!</text></g><g transform="translate(743.2218732076976 20.539535522460938) rotate(0 64.5 10)"><text x="0" y="14" font-family="Virgil, Segoe UI Emoji" font-size="16px" fill="#495057" text-anchor="start" style="white-space: pre;" direction="ltr">https://your-app</text></g><g stroke-linecap="round"><g transform="translate(214.38197205558646 105.8957175388866) rotate(0 70.99802747367033 -1.195725242400897)"><path d="M0.33 0.23 C23.83 -0.15, 118.24 -2.48, 141.67 -2.62" stroke="#364fc7" stroke-width="1.5" fill="none" stroke-dasharray="8 9"></path></g><g transform="translate(214.38197205558646 105.8957175388866) rotate(0 70.99802747367033 -1.195725242400897)"><path d="M28.68 -9.56 C16.86 -6.88, 10.28 -4.07, 1.1 -1" stroke="#364fc7" stroke-width="1.5" fill="none"></path></g><g transform="translate(214.38197205558646 105.8957175388866) rotate(0 70.99802747367033 -1.195725242400897)"><path d="M29.11 10.96 C17.2 6.38, 10.47 1.95, 1.1 -1" stroke="#364fc7" stroke-width="1.5" fill="none"></path></g><g transform="translate(214.38197205558646 105.8957175388866) rotate(0 70.99802747367033 -1.195725242400897)"><path d="M114.03 9.18 C122.06 4.07, 135.25 -0.74, 142.44 -3.86" stroke="#364fc7" stroke-width="1.5" fill="none"></path></g><g transform="translate(214.38197205558646 105.8957175388866) rotate(0 70.99802747367033 -1.195725242400897)"><path d="M113.69 -11.33 C121.78 -9.2, 135.1 -6.76, 142.44 -3.86" stroke="#364fc7" stroke-width="1.5" fill="none"></path></g></g><g stroke-linecap="round" transform="translate(733.1497449117992 132.34314073835094) rotate(0 15.508335658482224 13.65377153669084)"><path d="M1.82 1.58 C1.82 1.58, 1.82 1.58, 1.82 1.58 M1.82 1.58 C1.82 1.58, 1.82 1.58, 1.82 1.58 M5.89 9.09 C6.77 7.18, 8.61 5.91, 10.48 3.81 M5.89 9.09 C6.92 7.74, 7.87 6.75, 10.48 3.81 M2.08 25.66 C10.09 18.73, 14.78 11.83, 24.39 0 M2.08 25.66 C6.09 19.83, 11.33 14.16, 24.39 0 M9.43 29.4 C15.98 22.18, 18.93 16.31, 31.74 3.74 M9.43 29.4 C16.41 20.73, 26.07 10.57, 31.74 3.74 M20.06 29.37 C23.63 23.45, 31.81 16.52, 35.81 11.25 M20.06 29.37 C26.37 22.87, 31.36 15.63, 35.81 11.25" stroke="#4c6ef5" stroke-width="1" fill="none"></path><path d="M6.83 0 M6.83 0 C10.94 1.25, 18.46 -0.13, 24.19 0 M6.83 0 C13.71 0.45, 19.08 -0.45, 24.19 0 M24.19 0 C27.96 0.02, 32.67 3.78, 31.02 6.83 M24.19 0 C27.18 1.95, 31.98 0.63, 31.02 6.83 M31.02 6.83 C32.05 11.43, 29.89 15.93, 31.02 20.48 M31.02 6.83 C30.79 9.82, 30.76 14.13, 31.02 20.48 M31.02 20.48 C29.8 25.97, 28.67 26.94, 24.19 27.31 M31.02 20.48 C29.73 24.57, 27.94 28.71, 24.19 27.31 M24.19 27.31 C20.1 26.69, 13.77 26.75, 6.83 27.31 M24.19 27.31 C19.21 27.86, 12.61 27.36, 6.83 27.31 M6.83 27.31 C0.86 28.67, -1.8 25.01, 0 20.48 M6.83 27.31 C0.9 28.45, -0.44 26.89, 0 20.48 M0 20.48 C0.59 15.17, -0.08 13.06, 0 6.83 M0 20.48 C-0.55 15.83, -0.75 9.9, 0 6.83 M0 6.83 C-1.56 3.87, 0.63 -1.05, 6.83 0 M0 6.83 C0.62 1.35, 2.67 0.93, 6.83 0" stroke="#364fc7" stroke-width="2" fill="none"></path></g><g transform="translate(658.9809391082276 262.8102035522458) rotate(0 79 10)"><text x="79" y="14" font-family="Virgil, Segoe UI Emoji" font-size="16px" fill="#364fc7" text-anchor="middle" style="white-space: pre;" direction="ltr">The lightweight SDK</text></g><g stroke-linecap="round"><g transform="translate(750.3621131202615 169.2110563005718) rotate(0 -0.10701155894400927 43.52453807108098)"><path d="M0.32 -0.48 C0.4 14.21, -0.46 72.78, -0.54 87.53" stroke="#364fc7" stroke-width="2.5" fill="none" stroke-dasharray="8 10"></path></g></g><g stroke-linecap="round"><g transform="translate(729.092127724299 144.44573647635315) rotate(0 -83.52107627905366 -24.802672613066235)"><path d="M0.07 -0.75 C-27.81 -9.08, -139.18 -40.78, -167.11 -48.86" stroke="#364fc7" stroke-width="2.5" fill="none" stroke-dasharray="8 10"></path></g><g transform="translate(729.092127724299 144.44573647635315) rotate(0 -83.52107627905366 -24.802672613066235)"><path d="M-31.1 0.93 C-19.66 -0.46, -10.83 1.73, -1.15 0.78" stroke="#364fc7" stroke-width="2.5" fill="none"></path></g><g transform="translate(729.092127724299 144.44573647635315) rotate(0 -83.52107627905366 -24.802672613066235)"><path d="M-25.42 -18.79 C-15.58 -13.97, -8.53 -5.58, -1.15 0.78" stroke="#364fc7" stroke-width="2.5" fill="none"></path></g><g transform="translate(729.092127724299 144.44573647635315) rotate(0 -83.52107627905366 -24.802672613066235)"><path d="M-138.43 -51.33 C-145.77 -51.38, -155.77 -47.89, -168.32 -47.33" stroke="#364fc7" stroke-width="2.5" fill="none"></path></g><g transform="translate(729.092127724299 144.44573647635315) rotate(0 -83.52107627905366 -24.802672613066235)"><path d="M-144.08 -31.61 C-149.84 -37.86, -158.05 -40.58, -168.32 -47.33" stroke="#364fc7" stroke-width="2.5" fill="none"></path></g></g></svg>